HIERARCHY
ROOT RootJoint
{
    OFFSET   0.000000   0.000000   0.000000
    CHANNELS 6 Xposition Yposition Zposition Xrotation Yrotation Zrotation
    JOINT pelvis_lowerback
    {
        OFFSET   0.000000   0.093605   0.000000
        CHANNELS 3 Xrotation Yrotation Zrotation
        JOINT lowerback_torso
        {
            OFFSET   0.000000   0.100000   0.000000
            CHANNELS 3 Xrotation Yrotation Zrotation
            JOINT torso_head
            {
                OFFSET   0.000000   0.282350   0.000000
                CHANNELS 3 Xrotation Yrotation Zrotation
                End Site
                {
                    OFFSET   0.000000   0.192650   0.000000
                }
            }
            JOINT rTorso_Clavicle
            {
                OFFSET  -0.001000   0.157500   0.000000
                CHANNELS 3 Xrotation Yrotation Zrotation
                JOINT rShoulder
                {
                    OFFSET  -0.117647   0.000000   0.000000
                    CHANNELS 3 Xrotation Yrotation Zrotation
                    JOINT rElbow
                    {
                        OFFSET  -0.245000   0.000000   0.000000
                        CHANNELS 3 Xrotation Yrotation Zrotation
                        JOINT rWrist
                        {
                            OFFSET  -0.240000   0.000000   0.000000
                            CHANNELS 3 Xrotation Yrotation Zrotation
                            End Site
                            {
                                OFFSET  -0.116353  -0.002500   0.000000
                            }
                        }
                    }
                }
            }
            JOINT lTorso_Clavicle
            {
                OFFSET   0.001000   0.157500   0.000000
                CHANNELS 3 Xrotation Yrotation Zrotation
                JOINT lShoulder
                {
                    OFFSET   0.117647   0.000000   0.000000
                    CHANNELS 3 Xrotation Yrotation Zrotation
                    JOINT lElbow
                    {
                        OFFSET   0.245000   0.000000   0.000000
                        CHANNELS 3 Xrotation Yrotation Zrotation
                        JOINT lWrist
                        {
                            OFFSET   0.240000   0.000000   0.000000
                            CHANNELS 3 Xrotation Yrotation Zrotation
                            End Site
                            {
                                OFFSET   0.116353  -0.002500   0.000000
                            }
                        }
                    }
                }
            }
        }
    }
    JOINT rHip
    {
        OFFSET  -0.100000  -0.051395   0.000000
        CHANNELS 3 Xrotation Yrotation Zrotation
        JOINT rKnee
        {
            OFFSET   0.000000  -0.410000   0.000000
            CHANNELS 3 Xrotation Yrotation Zrotation
            JOINT rAnkle
            {
                OFFSET   0.000000  -0.390000   0.000000
                CHANNELS 3 Xrotation Yrotation Zrotation
                JOINT rToeJoint
                {
                    OFFSET   0.000000  -0.050000   0.130000
                    CHANNELS 3 Xrotation Yrotation Zrotation
                    End Site
                    {
                        OFFSET  -0.010000   0.002000   0.060000
                    }
                }
            }
        }
    }
    JOINT lHip
    {
        OFFSET   0.100000  -0.051395   0.000000
        CHANNELS 3 Xrotation Yrotation Zrotation
        JOINT lKnee
        {
            OFFSET   0.000000  -0.410000   0.000000
            CHANNELS 3 Xrotation Yrotation Zrotation
            JOINT lAnkle
            {
                OFFSET   0.000000  -0.390000   0.000000
                CHANNELS 3 Xrotation Yrotation Zrotation
                JOINT lToeJoint
                {
                    OFFSET   0.000000  -0.050000   0.130000
                    CHANNELS 3 Xrotation Yrotation Zrotation
                    End Site
                    {
                        OFFSET   0.010000   0.002000   0.060000
                    }
                }
            }
        }
    }
}
MOTION
Frames: 14
Frame Time:   0.008333
 -2.376719   0.925631   3.975860   0.000000   0.000000   0.000000   0.000000   0.000000   0.000000   0.000000   0.000000   0.000000   0.000000   0.000000   0.000000   0.000000   0.000000   0.000000   0.000000   0.000000   0.000000   0.000000   0.000000   0.000000   0.000000   0.000000   0.000000   0.000000   0.000000   0.000000   0.000000   0.000000   0.000000   0.000000   0.000000   0.000000   0.000000   0.000000   0.000000   0.000000   0.000000   0.000000   0.000000   0.000000   0.000000   0.000000   0.000000   0.000000   0.000000   0.000000   0.000000   0.000000   0.000000   0.000000   0.000000   0.000000   0.000000   0.000000   0.000000   0.000000   0.000000   0.000000   0.000000
 -2.376619   0.926143   3.975981  -0.735763   0.127877  -0.009938   0.790194  -0.030042   0.002618   0.172925  -0.179491   0.031162  -0.184093   0.145781   0.045612   0.047855  -0.196441   0.214286   0.595936   0.317570   2.146380   0.018633   0.892242  -0.006925   0.259007  -0.544174  -2.647387   0.095397   0.117732  -0.285902   0.768828  -0.138048  -2.125538   0.014627  -0.698920   0.006756   0.292643   0.422218   2.695413   0.624911   0.063231  -0.133007   0.586601   0.000745   0.000973  -0.738783  -0.231606  -0.020835   0.093854   0.000134  -0.000033   0.391383   0.088589   0.133347   1.492354  -0.001550   0.002843  -1.449260   0.351553   0.262899   0.206930  -0.000696   0.001026
 -2.376495   0.927030   3.976201  -1.530342   0.242896  -0.021771   1.539036  -0.064777   0.012877   0.414515  -0.366599   0.069900  -0.334044   0.285260   0.096280   0.098305  -0.305414   1.124004   1.163139   0.734355   4.848127   0.043348   1.776648  -0.012023   0.543413  -0.762921  -4.572635   0.195223   0.140492  -1.274960   1.513947  -0.385461  -4.817468   0.034056  -1.394142   0.011945   0.614576   0.598327   4.657934   1.264276   0.123209  -0.378810   1.243121   0.002125   0.001742  -1.429098  -0.449667  -0.043884   0.144043   0.000231  -0.000045   0.869201   0.195862   0.384365   3.112461  -0.004353   0.005602  -2.800474   0.683153   0.519509   0.351650  -0.001173   0.001524
 -2.376352   0.927892   3.976494  -2.290717   0.342172  -0.031842   2.218635  -0.106704   0.026990   0.636987  -0.551577   0.109885  -0.474320   0.415240   0.145894   0.143881  -0.350867   2.462273   1.693796   1.219127   7.910744   0.067835   2.620351  -0.015149   0.824866  -0.825175  -5.696013   0.286341   0.094481  -2.690736   2.226790  -0.721562  -7.874022   0.053453  -2.062775   0.015498   0.931313   0.626511   5.810412   1.848068   0.171375  -0.719685   1.870034   0.003697   0.002112  -2.073004  -0.654319  -0.068607   0.185398   0.000322  -0.000057   1.376118   0.305409   0.727381   4.675469  -0.007582   0.007757  -4.060219   0.989052   0.767558   0.486309  -0.001607   0.001832
 -2.376200   0.928439   3.976847  -3.001749   0.428029  -0.039235   2.836129  -0.156548   0.041885   0.829333  -0.734866   0.146959  -0.610863   0.536330   0.193952   0.184533  -0.359096   4.046136   2.186461   1.755669  11.216187   0.089106   3.417488  -0.016803   1.099492  -0.807000  -6.225686   0.366425   0.005313  -4.355047   2.899433  -1.128880 -11.145569   0.070401  -2.699968   0.017811   1.241344   0.560211   6.354089   2.369069   0.208716  -1.136955   2.450325   0.005192   0.002175  -2.674833  -0.846345  -0.094598   0.217037   0.000383  -0.000066   1.893205   0.414919   1.142659   6.154127  -0.010772   0.009408  -5.237010   1.270710   1.006450   0.605446  -0.001942   0.001973
 -2.376089   0.928444   3.977251  -3.663610   0.500619  -0.041693   3.400531  -0.214182   0.049174   0.995906  -0.917340   0.166357  -0.743351   0.649166   0.243741   0.221116  -0.348022   5.759526   2.640009   2.332546  14.688583   0.105892   4.166347  -0.017418   1.364469  -0.748025  -6.345921   0.435441  -0.110054  -6.189126   3.499638  -1.573241 -14.402436   0.083526  -3.304800   0.019078   1.543799   0.425321   6.413017   2.831056   0.237218  -1.612272   2.984293   0.006461   0.002031  -3.237568  -1.026371  -0.121463   0.240149   0.000409  -0.000070   2.412267   0.523581   1.615072   7.547654  -0.013702   0.010650  -6.336694   1.529896   1.235786   0.709923  -0.002176   0.001994
 -2.376020   0.927731   3.977697  -4.279337   0.560030  -0.041743   3.919352  -0.277946   0.048767   1.142547  -1.097717   0.175487  -0.870551   0.754206   0.289489   0.255690  -0.328388   7.543579   3.043626   2.927860  18.200127   0.117751   4.867942  -0.017249   1.618333  -0.666932  -6.160628   0.493444  -0.238015  -8.093977   4.031441  -2.039270 -17.577864   0.092568  -3.876155   0.019609   1.835647   0.246737   6.158662   3.239476   0.258703  -2.129188   3.475258   0.007456   0.001759  -3.763682  -1.194910  -0.148745   0.256847   0.000407  -0.000070   2.928134   0.630665   2.132032   8.859804  -0.016213   0.011546  -7.364344   1.768396   1.455428   0.801706  -0.002318   0.001936
 -2.376073   0.925668   3.977618  -4.462097   0.553375  -0.176904   4.112922  -0.312834   0.201146   1.175655  -1.246836   0.182684  -1.092284   0.740777   0.269560   0.417154  -0.183864   8.798894   3.522824   3.402182  21.525640   0.126872   5.657243  -0.018937   1.785232  -0.521872  -5.003950   0.675320  -0.399514  -9.292225   4.346181  -2.386893 -20.831491   0.098169  -4.488351   0.019919   2.073739  -0.079340   5.040245   2.939511   0.089372  -2.448848   4.509671   0.009986  -0.000835  -4.184077  -1.394375   0.115025   0.331871   0.000455  -0.000319   3.112532   0.822308   2.763368   9.358473  -0.014884   0.010465  -7.977707   2.140459   1.643573   0.957054  -0.002750   0.002336
 -2.376158   0.922443   3.977370  -4.594319   0.608428  -0.324639   4.323977  -0.372516   0.360711   1.191741  -1.402813   0.207556  -1.314673   0.722193   0.247370   0.561180  -0.039518   9.816560   3.945417   3.869034  24.527837   0.128600   6.396084  -0.019907   1.949319  -0.354627  -3.898418   0.833544  -0.563652 -10.234381   4.621083  -2.727315 -23.758869   0.098247  -5.061869   0.019870   2.296163  -0.426631   3.980154   2.617233  -0.083599  -2.709135   5.514585   0.011460  -0.002425  -4.569416  -1.584454   0.360160   0.426858   0.000503  -0.000538   3.207788   0.997933   3.374172   9.683062  -0.013029   0.009287  -8.556312   2.486771   1.824124   1.108816  -0.003002   0.002673
 -2.376240   0.918162   3.977053  -4.708855   0.694592  -0.467008   4.546570  -0.433325   0.515735   1.217688  -1.554719   0.240746  -1.519377   0.704490   0.226086   0.687938   0.098124  10.661437   4.316058   4.322911  27.254498   0.125595   7.086344  -0.020275   2.105235  -0.192252  -2.978638   0.969830  -0.724592 -10.993664   4.860404  -3.057595 -26.405060   0.094894  -5.598360   0.019448   2.505715  -0.764867   3.122240   2.323705  -0.243014  -2.937235   6.457294   0.012105  -0.003260  -4.927913  -1.762895   0.587832   0.517326   0.000518  -0.000659   3.241844   1.161642   3.939939   9.943108  -0.011220   0.008194  -9.099715   2.808006   1.996265   1.245243  -0.003055   0.002860
 -2.376302   0.917600   3.977205  -5.045524   0.712719  -0.501302   4.896962  -0.458863   0.581997   1.346963  -1.674637   0.244264  -1.700541   0.689022   0.203390   0.799327   0.247776  11.661680   4.636515   4.771093  29.843774   0.121554   7.724719  -0.020014   2.252897  -0.074375  -2.267717   1.091518  -0.880375 -11.885527   5.068078  -3.374533 -28.898424   0.090816  -6.090210   0.018676   2.701042  -1.031599   2.494763   2.107773  -0.487399  -2.960060   7.548824   0.009875  -0.005340  -4.957563  -2.000409   0.951461   0.692605  -0.000047  -0.001299   3.224569   1.455138   4.051344  10.646704  -0.008905   0.008752  -9.223593   3.188764   1.984807   1.456831  -0.002515   0.003602
 -2.376422   0.917198   3.977674  -5.301696   0.737138  -0.521998   5.129970  -0.485401   0.649865   1.441257  -1.784789   0.243293  -1.859812   0.674333   0.178371   0.918237   0.360564  12.482003   4.927509   5.189825  32.258933   0.115159   8.322760  -0.019067   2.392947   0.054794  -1.469089   1.220206  -0.994701 -12.602955   5.261377  -3.661111 -31.222321   0.085108  -6.549186   0.017424   2.885275  -1.296892   1.787136   1.951540  -0.599528  -2.965289   8.464434   0.007900  -0.005337  -5.285201  -2.115127   1.161181   0.347404   0.000527  -0.000342   3.249135   1.629240   4.122469  11.193632  -0.007041   0.008105  -9.561220   3.460444   2.106373   1.458132  -0.002014   0.002887
 -2.376617   0.916820   3.978261  -5.504556   0.790555  -0.526323   5.320552  -0.516876   0.712402   1.501628  -1.892028   0.243706  -2.015750   0.660243   0.154865   1.034307   0.452149  13.179829   5.189374   5.578723  34.472505   0.107196   8.877409  -0.017852   2.523839   0.165881  -0.743290   1.343261  -1.089712 -13.200461   5.437324  -3.922997 -33.347327   0.078379  -6.973892   0.015954   3.057352  -1.536403   1.153966   1.815204  -0.679296  -2.973340   9.264263   0.006289  -0.004704  -5.621272  -2.203956   1.346695   0.177047   0.000678  -0.000065   3.261192   1.784987   4.182965  11.662063  -0.005572   0.007456  -9.883580   3.714205   2.232307   1.597477  -0.001786   0.002900
 -2.376787   0.916576   3.978861  -5.564519   0.842206  -0.494862   5.417743  -0.525297   0.702874   1.482246  -1.944998   0.314513  -2.170362   0.603685   0.117777   1.107994   0.462945  13.525511   5.403282   5.872986  36.198581   0.094387   9.311318  -0.015788   2.589501   0.419924   0.577004   1.493120  -1.164300 -13.421941   5.434395  -4.169836 -35.212153   0.071948  -7.483233   0.014159   3.164203  -1.712520   0.041993   1.615590  -0.776216  -3.019983   9.893051   0.005006  -0.004157  -5.927159  -2.330253   1.468372   0.240049   0.000482  -0.000156   3.261075   1.878647   4.179432  11.846546  -0.004421   0.006226 -10.011968   3.805360   2.402063   1.449205  -0.001203   0.001994
